<svg width="57.501mm" height="43.144mm" version="1.1" viewBox="0 0 57.501 43.144" xmlns="http://www.w3.org/2000/svg" xmlns:osb="http://www.openswatchbook.org/uri/2009/osb">
 <g transform="translate(-10.43 104.34)">
  <g fill="none" stroke-width="1.065">
   <g stroke="#37375b" stroke-linecap="round">
    <path d="m27.279-92.191h22.272v25.358h-22.272z" stroke-linejoin="round"/>
    <path d="m39.544-87.737h6.7433" stroke-linejoin="bevel"/>
    <path d="m37.657-83.303h8.287" stroke-linejoin="bevel"/>
   </g>
   <path d="m45.919-79.947c-0.66259 2.8679-1.3252 5.7358-2.6327 7.355-1.3075 1.6192-3.2602 1.9901-5.112 0.93602-1.8519-1.0541-3.6026-3.5331-5.0389-3.8364s-2.5574 1.5699-2.3347 2.9891c0.22273 1.4192 1.789 2.3842 3.4221 1.5712 1.6331-0.81304 3.3332-3.4036 5.3592-4.4293 2.026-1.0256 4.3772-0.48606 5.649 0.45862s1.4648 2.2944 1.6577 3.6436" stroke="#41cff6" stroke-linecap="round" stroke-linejoin="bevel"/>
   <g>
    <path d="m34.516-100.13c-0.80324 1.3775-2.186 2.03-3.1525 1.8456-0.96651-0.18447-1.5165-1.2063-0.71283-2.584 0.80362-1.3778 2.9603-3.1111 3.9265-2.9264 0.9662 0.18474 0.74204 2.2873-0.0612 3.6648z" stroke="#3cf691"/>
    <path d="m59.062-61.75c-1.5155-0.07619-2.9164-0.39386-3.0712-1.6555-0.15484-1.2617 0.93673-3.4673 2.7567-4.3167s4.3674-0.34258 5.337 0.83656 0.36137 3.0305-0.75765 4.0386c-1.119 1.0081-2.7493 1.1733-4.2648 1.0971z" stroke="#3cf691"/>
    <path d="m23.818-84.987c-0.47568-1.444 0.06645-3.6253 1.6765-4.6125 1.6101-0.98718 4.2875-0.78006 5.9772 0.16508 1.6897 0.94513 2.3918 2.6278 1.7567 3.8742-0.63506 1.2464-3.5201 2.4324-5.4809 2.5782-1.9608 0.14588-3.4538-0.56094-3.9295-2.005z" stroke="#ffaf35"/>
   </g>
   <g>
    <path d="m17.073-88.098-4.6163 14.503" stroke="#37375b" stroke-linecap="round"/>
    <path d="m11.175-72.257c-0.27903-0.75301-0.35767-1.2906 0.23838-1.4171 0.59605-0.12649 1.8668 0.15854 2.1456 0.91167s-0.43402 1.9744-1.0299 2.1007-1.0751-0.84226-1.3542-1.5953z" stroke="#3cf691"/>
    <path d="m16.878-93.441c1.0116-0.1887 2.9511 0.76529 3.2625 2.068 0.31137 1.3027-1.0048 2.954-2.0188 3.1832-1.0139 0.22923-1.6561-0.84706-1.9975-2.2892-0.34141-1.4422-0.25787-2.7733 0.75376-2.962z" stroke="#f73b5b"/>
    <path d="m63.985-90.909-6.5641-6.0857" stroke="#37375b" stroke-linecap="round"/>
    <path d="m64.547-86.864c-0.33946 0.0098-1.0182 0.0295-1.3437-0.58167-0.32551-0.61116-0.29751-1.8532 0.15992-2.7136 0.45743-0.86041 1.3442-1.339 2.2658-1.1258 0.92158 0.21318 1.8778 1.1179 1.7598 1.9684s-1.31 1.6466-1.906 2.0448c-0.59604 0.39814-0.59634 0.39813-0.9358 0.40797z" stroke="#ffaf35"/>
    <path d="m57.421-96.995c-0.2084 1.942-3.9642 1.3487-5.6339-0.89001-1.6697-2.2387-1.2527-6.1236 0.62551-5.8268 1.8782 0.29686 5.2168 4.7747 5.0084 6.7168z" stroke="#37375b"/>
   </g>
  </g>
 </g>
</svg>
