<svg width="1690.2" height="524.24" version="1.1" viewBox="0 0 447.19 138.7" xmlns="http://www.w3.org/2000/svg" xmlns:osb="http://www.openswatchbook.org/uri/2009/osb">
 <g transform="translate(125.6 -218.86)" fill="none" stroke-width="1.0583">
  <path d="m-89.139 320.99c13.017-1.3537 17.411-4.4903 33.375-19.045 15.965-14.555 43.498-40.526 78.539-43.579s78.039 17.024 125.31 15.133c47.267-1.891 99.028-25.645 129.78-30.002s40.508 10.683 42.732 27.462-3.0807 35.298-25.785 27.976c-22.705-7.3222-62.811-40.486-95.552-54.227-32.742-13.74-58.119-8.0583-79.694 6.6761-21.576 14.734-39.351 38.521-62.851 37.029-23.501-1.4926-52.728-28.265-77.769-47.121-25.041-18.856-45.896-29.795-65.929-15.11-20.033 14.685-39.243 54.994-38.028 75.363 1.2152 20.369 22.857 20.798 35.874 19.444z" stroke="#313151"/>
  <path d="m-102.06 270.89c10.527-19.09 59.094-28.634 113.84-24.002s115.66 23.441 168.72 28.354c53.058 4.9128 98.255-4.0705 117.49-0.56124s12.493 19.511-17.545 34.389c-30.038 14.878-83.377 28.634-130.26 37.056-46.882 8.4219-87.307 11.51-120.85 10.808-33.547-0.70184-60.217-5.1936-87.307-21.757-27.09-16.563-54.602-45.198-44.075-64.287z" stroke="#3cf691"/>
 </g>
</svg>
