<!-- Shape: svg-path -->
<svg width="14" xmlns="http://www.w3.org/2000/svg" style="inherit" version="1.1" viewBox="2764 908 14 14" height="14">
  <g >
    <g>
      <path rx="0" ry="0" d="M2777.487,908.513C2776.804,907.829,2775.696,907.829,2775.013,908.513L2774.241,909.284L2776.716,911.759L2777.487,910.987C2778.171,910.304,2778.171,909.196,2777.487,908.513ZZM2776.009,912.466L2773.534,909.991L2765.434,918.091C2765.023,918.503,2764.720,919.010,2764.554,919.567L2764.021,921.357C2763.968,921.533,2764.016,921.724,2764.146,921.854C2764.276,921.984,2764.467,922.032,2764.643,921.979L2766.433,921.446C2766.990,921.280,2767.497,920.977,2767.909,920.566L2776.009,912.466ZZ">
      </path>
    </g>
  </g>
</svg>