<!-- Shape: svg-path -->
<svg xmlns:xlink="http://www.w3.org/1999/xlink" fill="none" width="18.5" xmlns="http://www.w3.org/2000/svg" style="-webkit-print-color-adjust:exact" id="screenshot-fe80da48-412a-804f-8003-dba9784f2b30" version="1.1" viewBox="2672.75 993.75 18.5 18.5" height="18.5">
  <g id="shape-fe80da48-412a-804f-8003-dba9784f2b30">
    <g class="fills" id="fills-fe80da48-412a-804f-8003-dba9784f2b30">
      <path fill="none" stroke-linecap="round" stroke-linejoin="round" rx="0" ry="0" style="fill:none" d="M2683.500,1007.875L2686.875,1007.875M2686.875,1007.875L2690.250,1007.875M2686.875,1007.875L2686.875,1004.500M2686.875,1007.875L2686.875,1011.250M2676.000,1001.500L2678.250,1001.500C2679.493,1001.500,2680.500,1000.493,2680.500,999.250L2680.500,997.000C2680.500,995.757,2679.493,994.750,2678.250,994.750L2676.000,994.750C2674.757,994.750,2673.750,995.757,2673.750,997.000L2673.750,999.250C2673.750,1000.493,2674.757,1001.500,2676.000,1001.500ZZM2676.000,1011.250L2678.250,1011.250C2679.493,1011.250,2680.500,1010.243,2680.500,1009.000L2680.500,1006.750C2680.500,1005.507,2679.493,1004.500,2678.250,1004.500L2676.000,1004.500C2674.757,1004.500,2673.750,1005.507,2673.750,1006.750L2673.750,1009.000C2673.750,1010.243,2674.757,1011.250,2676.000,1011.250ZZM2685.750,1001.500L2688.000,1001.500C2689.243,1001.500,2690.250,1000.493,2690.250,999.250L2690.250,997.000C2690.250,995.757,2689.243,994.750,2688.000,994.750L2685.750,994.750C2684.507,994.750,2683.500,995.757,2683.500,997.000L2683.500,999.250C2683.500,1000.493,2684.507,1001.500,2685.750,1001.500ZZ">
      </path>
    </g>
    <g id="strokes-fe80da48-412a-804f-8003-dba9784f2b30" class="strokes">
      <g class="stroke-shape">
        <path stroke-linecap="round" stroke-linejoin="round" rx="0" ry="0" style="fill:none;fill-opacity:none;stroke-width:2;stroke:#000000;stroke-dasharray:" d="M2683.500,1007.875L2686.875,1007.875M2686.875,1007.875L2690.250,1007.875M2686.875,1007.875L2686.875,1004.500M2686.875,1007.875L2686.875,1011.250M2676.000,1001.500L2678.250,1001.500C2679.493,1001.500,2680.500,1000.493,2680.500,999.250L2680.500,997.000C2680.500,995.757,2679.493,994.750,2678.250,994.750L2676.000,994.750C2674.757,994.750,2673.750,995.757,2673.750,997.000L2673.750,999.250C2673.750,1000.493,2674.757,1001.500,2676.000,1001.500ZZM2676.000,1011.250L2678.250,1011.250C2679.493,1011.250,2680.500,1010.243,2680.500,1009.000L2680.500,1006.750C2680.500,1005.507,2679.493,1004.500,2678.250,1004.500L2676.000,1004.500C2674.757,1004.500,2673.750,1005.507,2673.750,1006.750L2673.750,1009.000C2673.750,1010.243,2674.757,1011.250,2676.000,1011.250ZZM2685.750,1001.500L2688.000,1001.500C2689.243,1001.500,2690.250,1000.493,2690.250,999.250L2690.250,997.000C2690.250,995.757,2689.243,994.750,2688.000,994.750L2685.750,994.750C2684.507,994.750,2683.500,995.757,2683.500,997.000L2683.500,999.250C2683.500,1000.493,2684.507,1001.500,2685.750,1001.500ZZ">
        </path>
      </g>
    </g>
  </g>
</svg>