<?xml version="1.0" encoding="UTF-8" standalone="no"?>
<!-- Created with Inkscape (http://www.inkscape.org/) -->

<svg
   width="8.7577667mm"
   height="6.1757669mm"
   viewBox="0 0 8.7577667 6.1757669"
   version="1.1"
   id="svg8523"
   xmlns="http://www.w3.org/2000/svg"
   xmlns:svg="http://www.w3.org/2000/svg">
  <defs
     id="defs8520" />
  <g
     id="layer1"
     transform="translate(-171.41762,-107.47162)">
    <path
       id="path852776"
       style="fill:none;fill-opacity:1;stroke:#ffffff;stroke-width:0.529167;stroke-linecap:round;stroke-linejoin:round;stroke-miterlimit:4;stroke-dasharray:none;stroke-opacity:1"
       d="m 174.4267,107.7362 c -1.5205,0 -2.7445,1.2589 -2.7445,2.8227 0,1.5636 1.224,2.8226 2.7445,2.8226 h 0.149 c 0.021,0 0.043,0 0.064,0 0.018,0 0.037,0 0.057,0 h 3.1708 c 1.1319,0 2.0433,-0.9082 2.0433,-2.0362 0,-1.1281 -0.9114,-2.0362 -2.0433,-2.0362 h -0.8279 c -0.4467,-0.9334 -1.3794,-1.5729 -2.4629,-1.5729 z" />
    <path
       d="m 175.1117,113.3828 c 0,-0.1484 -0.012,-0.3673 -0.014,-0.415 0,0 0.024,-0.6192 -0.7532,-1.2243 1.0404,-0.8096 1.6437,-1.638 1.6437,-1.638 0.8124,1.0368 1.6594,1.6224 1.6594,1.6224 -0.7617,0.5892 -0.7375,1.2084 -0.7375,1.2084 l -0.018,0.4454 z"
       style="display:inline;fill:none;fill-opacity:1;stroke:#ffffff;stroke-width:0.529167;stroke-linecap:round;stroke-linejoin:round;stroke-miterlimit:4;stroke-dasharray:none;stroke-opacity:1"
       id="path852778" />
    <path
       id="path852780"
       style="fill:none;fill-opacity:1;stroke:#2ce6c7;stroke-width:0.529167;stroke-linecap:round;stroke-linejoin:round;stroke-miterlimit:4;stroke-dasharray:none;stroke-opacity:1"
       d="m 176.6532,108.7133 c -0.5081,-0.599 -1.2621,-0.9771 -2.0765,-0.9771 m 5.2161,2.9231 c -0.2813,-0.7886 -1.0351,-1.3502 -1.9253,-1.3502" />
    <path
       d="m 175.6612,110.5039 c 0.2135,-0.2425 0.327,-0.3984 0.327,-0.3984 0.8124,1.0368 1.6594,1.6224 1.6594,1.6224"
       style="display:inline;fill:none;fill-opacity:1;stroke:#7ef9b6;stroke-width:0.529167;stroke-linecap:round;stroke-linejoin:round;stroke-miterlimit:4;stroke-dasharray:none;stroke-opacity:1"
       id="path852782" />
  </g>
</svg>
