<?xml version="1.0" encoding="UTF-8" standalone="no"?>
<!-- Created with Inkscape (http://www.inkscape.org/) -->

<svg
   width="5.88906mm"
   height="6.2372999mm"
   viewBox="0 0 5.88906 6.2372999"
   version="1.1"
   id="svg8068"
   xmlns="http://www.w3.org/2000/svg"
   xmlns:svg="http://www.w3.org/2000/svg">
  <defs
     id="defs8065" />
  <g
     id="layer1"
     transform="translate(-80.8335,-163.4074)">
    <path
       id="path31158"
       style="fill:#ffffff;fill-opacity:1;stroke:none;stroke-width:0.530799;stroke-linecap:round;stroke-linejoin:bevel;stroke-miterlimit:4;stroke-dasharray:none;stroke-opacity:1"
       d="m 83.779,163.4074 a 3.058446,3.1191978 0 0 0 -0.76075,0.1042 0.8958217,0.91361596 0 0 1 -0.25681,0.7444 0.8958217,0.91361596 0 0 1 -1.15543,0.086 3.058446,3.1191978 0 0 0 -0.77192,1.3539 0.89582178,0.91361604 0 0 1 0.27631,0.1833 0.89582178,0.91361604 0 0 1 0,1.2923 0.89582178,0.91361604 0 0 1 -0.2769,0.1832 3.058446,3.1191978 0 0 0 0.77132,1.3538 0.89582178,0.91361604 0 0 1 0.48965,-0.1796 0.89582178,0.91361604 0 0 1 0.66697,0.267 0.89582178,0.91361604 0 0 1 0.25681,0.7446 3.058446,3.1191978 0 0 0 0.76075,0.1042 3.058446,3.1191978 0 0 0 0.76745,-0.1042 0.8958217,0.91361596 0 0 1 0.24996,-0.7424 0.8958217,0.91361596 0 0 1 0.59982,-0.2673 0.8958217,0.91361596 0 0 1 0.55382,0.1803 3.058446,3.1191978 0 0 0 0.77251,-1.3457 0.8958217,0.91361596 0 0 1 -0.27527,-0.1921 0.8958217,0.91361596 0 0 1 0,-1.2919 0.8958217,0.91361596 0 0 1 0.27527,-0.1914 3.058446,3.1191978 0 0 0 -0.7667,-1.3391 0.89582178,0.91361604 0 0 1 -1.15945,-0.094 0.89582178,0.91361604 0 0 1 -0.25741,-0.7437 3.058446,3.1191978 0 0 0 -0.76,-0.1057 z m 0,1.881 a 1.2138387,1.23795 0 0 1 1.21348,1.2378 1.2138387,1.23795 0 0 1 -1.21348,1.2384 1.2138387,1.23795 0 0 1 -1.21438,-1.2384 1.2138387,1.23795 0 0 1 1.21438,-1.2378 z" />
  </g>
</svg>
