<?xml version="1.0" encoding="UTF-8" standalone="no"?>
<!-- Created with Inkscape (http://www.inkscape.org/) -->

<svg
   width="76.391106mm"
   height="75.1157mm"
   version="1.1"
   viewBox="0 0 76.391106 75.1157"
   id="svg13"
   sodipodi:docname="icon_mapikit.svg"
   inkscape:version="1.1.1 (3bf5ae0d25, 2021-09-20)"
   xmlns:inkscape="http://www.inkscape.org/namespaces/inkscape"
   xmlns:sodipodi="http://sodipodi.sourceforge.net/DTD/sodipodi-0.dtd"
   xmlns="http://www.w3.org/2000/svg"
   xmlns:svg="http://www.w3.org/2000/svg">
  <sodipodi:namedview
     id="namedview15"
     pagecolor="#505050"
     bordercolor="#ffffff"
     borderopacity="1"
     inkscape:pageshadow="0"
     inkscape:pageopacity="0"
     inkscape:pagecheckerboard="1"
     inkscape:document-units="mm"
     showgrid="false"
     fit-margin-top="0"
     fit-margin-left="0"
     fit-margin-right="0"
     fit-margin-bottom="0"
     inkscape:zoom="1.5411756"
     inkscape:cx="74.293933"
     inkscape:cy="198.87415"
     inkscape:window-width="1920"
     inkscape:window-height="1051"
     inkscape:window-x="0"
     inkscape:window-y="29"
     inkscape:window-maximized="1"
     inkscape:current-layer="svg13" />
  <defs
     id="defs5">
    <linearGradient
       id="linearGradient5128"
       x1="-338.04001"
       x2="-328.79001"
       y1="-592"
       y2="-592"
       gradientTransform="matrix(8.2582,0,0,8.2582,2791.591,4926.4068)"
       gradientUnits="userSpaceOnUse">
      <stop
         stop-color="#3cf691"
         offset="0"
         id="stop2" />
    </linearGradient>
  </defs>
  <path
     d="m 28.551018,74.18685 c -18.063,-4.8402 -29.7409998,-22.318 -27.3009998,-40.858 2.4411,-18.541 18.2449998,-32.4 36.9459998,-32.4 18.7,0 34.504,13.86 36.945,32.4 2.4403,18.54 -9.2377,36.017 -27.301,40.858"
     fill="none"
     stroke="url(#linearGradient5128)"
     stroke-linecap="round"
     stroke-opacity="0.99608"
     stroke-width="1.8577"
     id="path7"
     style="stroke:url(#linearGradient5128)" />
  <circle
     cx="38.197021"
     cy="37.55685"
     r="28.742001"
     fill="#ffffff"
     opacity="0.999"
     id="circle9" />
  <path
     d="m 38.261018,22.46085 c -1.3874,0 -2.8846,1.1025 -2.8846,2.8846 0,0.94392 0.42123,1.8895 0.91666,2.6947 0.24772,0.40465 0.52029,0.75976 0.8176,1.048 0.29731,0.28904 0.59462,0.57808 1.1495,0.57808 0.56152,0 0.85553,-0.28904 1.1512,-0.57808 0.29731,-0.28904 0.56976,-0.65241 0.8176,-1.0529 0.49544,-0.80931 0.91584,-1.7483 0.91584,-2.6864 0,-1.7689 -1.4882,-2.8846 -2.8838,-2.8846 z m 0,1.47 c 0.6276,0 1.4146,0.46245 1.4146,1.4146 0,0.42117 -0.29719,1.2693 -0.69368,1.9143 -0.19813,0.32207 -0.42111,0.60285 -0.5945,0.77628 -0.08245,0.08257 -0.08245,0.08257 -0.12392,0.09082 -0.08246,0 -0.08246,-0.08257 -0.12392,-0.09082 -0.17339,-0.16517 -0.39637,-0.44595 -0.59462,-0.76802 -0.39637,-0.64414 -0.69368,-1.4873 -0.69368,-1.92 0,-0.97283 0.77637,-1.4146 1.4139,-1.4146 z m -17.327,3.5717 c -1.3865,0 -2.8846,1.1041 -2.8846,2.8854 0,0.94392 0.42111,1.8895 0.91666,2.6938 0.24772,0.40465 0.52029,0.75976 0.8176,1.0496 0.29731,0.28904 0.5945,0.57808 1.1495,0.57808 0.56152,0 0.85553,-0.28904 1.1512,-0.57808 0.29731,-0.28904 0.56976,-0.65241 0.8176,-1.0521 0.49544,-0.80931 0.91749,-1.7483 0.91749,-2.6872 0,-1.7681 -1.4898,-2.8846 -2.8854,-2.8846 z m 34.523,0 c -1.3874,0 -2.8846,1.1041 -2.8846,2.8854 0,0.94392 0.42123,1.8895 0.91666,2.6938 0.24784,0.40465 0.52029,0.75976 0.8176,1.0496 0.29731,0.28904 0.59462,0.57808 1.1495,0.57808 0.56164,0 0.85647,-0.28904 1.152,-0.57808 0.29731,-0.28904 0.56988,-0.65241 0.8176,-1.0521 0.49555,-0.80931 0.91666,-1.7483 0.91666,-2.6872 0,-1.7681 -1.4889,-2.8846 -2.8846,-2.8846 z m -34.523,1.4708 c 0.6276,0 1.4146,0.46245 1.4146,1.4146 0,0.42117 -0.29731,1.2693 -0.69368,1.9143 -0.19813,0.32207 -0.42111,0.60285 -0.59462,0.77628 -0.08246,0.08257 -0.08246,0.08257 -0.1238,0.09082 0,0 -0.08246,-0.08257 -0.12392,-0.09082 -0.17339,-0.16517 -0.39637,-0.44595 -0.59462,-0.76802 -0.39637,-0.64414 -0.69368,-1.4873 -0.69368,-1.92 0,-0.97283 0.77625,-1.4146 1.4139,-1.4146 z m 34.523,0 c 0.62772,0 1.4139,0.46245 1.4139,1.4146 0,0.42117 -0.29731,1.2693 -0.69368,1.9143 -0.19824,0.32207 -0.42123,0.60285 -0.59462,0.77628 -0.08245,0.08257 -0.08245,0.08257 -0.12392,0.09082 -0.08245,0 -0.08245,-0.08257 -0.1238,-0.09082 -0.17351,-0.16517 -0.39649,-0.44595 -0.59462,-0.76802 -0.39637,-0.64414 -0.69368,-1.4873 -0.69368,-1.92 0,-0.97283 0.77625,-1.4146 1.4146,-1.4146 z m -17.195,5.0028 c -1.4427,0 -2.6526,0.61936 -3.5734,1.5583 -0.92078,0.93978 -1.5988,2.1818 -2.1868,3.5486 -1.0429,2.4254 -1.8358,5.2076 -2.8136,7.5241 -1.4278,-1.3007 -2.8837,-3.466 -4.2034,-5.443 -0.72666,-1.086 -1.4154,-2.1009 -2.1,-2.883 -0.68544,-0.78453 -1.3659,-1.4345 -2.3198,-1.4345 -0.46245,0 -0.92078,0.22297 -1.213,0.53678 -0.28906,0.32208 -0.46257,0.70195 -0.58637,1.1223 -0.23947,0.83739 -0.28082,1.854 -0.22298,2.9589 0.11544,2.2116 0.65234,4.7386 1.3402,6.4043 0.40474,0.98025 0.98604,2.148 1.7847,3.1051 0.80099,0.95712 1.8887,1.759 3.2232,1.6682 1.2693,-0.08257 2.3462,-0.63589 3.1984,-1.4452 0.65245,-0.61937 1.1636,-1.4064 1.6293,-2.252 2.3,1.7838 4.9352,3.6774 8.0403,3.6774 3.1027,0 5.737,-1.892 8.0344,-3.6749 0.4707,0.8473 0.97945,1.636 1.6319,2.2545 0.85305,0.80931 1.9324,1.3585 3.2034,1.4411 1.3304,0.09082 2.4072,-0.71846 3.1934,-1.6806 0.78462,-0.95795 1.3577,-2.1232 1.7565,-3.0944 0.68544,-1.6632 1.2339,-4.1894 1.3634,-6.3993 0.08245,-1.105 0,-2.1207 -0.19813,-2.9581 -0.11544,-0.42117 -0.28082,-0.80105 -0.57813,-1.1239 -0.28906,-0.32207 -0.74327,-0.54505 -1.2107,-0.54505 -0.95459,0 -1.6351,0.65241 -2.3197,1.4345 -0.68544,0.78453 -1.3742,1.797 -2.1001,2.883 -1.3205,1.9779 -2.778,4.1456 -4.2067,5.4455 -0.97615,-2.3156 -1.7697,-5.0986 -2.8119,-7.5249 -0.58625,-1.3676 -1.2643,-2.6096 -2.1842,-3.5494 -0.92078,-0.94061 -2.1298,-1.5592 -3.5717,-1.5592 z m 0,1.4708 c 1.0447,0 1.8069,0.38814 2.5204,1.1165 0.71017,0.72672 1.3328,1.8193 1.8846,3.1018 1.0281,2.3932 1.8383,5.3877 2.9721,7.9362 -2.3231,1.7986 -4.8112,3.5552 -7.3779,3.5552 -2.5684,0 -5.0581,-1.759 -7.3821,-3.5585 1.1347,-2.5485 1.9449,-5.5413 2.9738,-7.9345 0.55327,-1.2817 1.1718,-2.3709 1.8862,-3.1001 0.71017,-0.72672 1.4765,-1.1165 2.5229,-1.1165 z m -17.197,2.8706 c 0.12392,0 0.62772,0.26426 1.2131,0.93235 0.58637,0.66892 1.2636,1.6525 1.9836,2.731 1.3998,2.0951 2.9573,4.5437 4.7931,6.0459 -0.44596,0.84398 -0.92821,1.5889 -1.4757,2.1075 -0.6607,0.62762 -1.3676,0.98191 -2.2867,1.0455 -0.68544,0.08257 -1.3519,-0.37162 -1.9935,-1.1438 -0.64421,-0.76802 -1.1868,-1.8292 -1.5543,-2.7227 -0.58625,-1.4196 -1.1247,-3.8987 -1.2313,-5.922 -0.08245,-1.0108 0,-1.9192 0.16515,-2.4766 0.08246,-0.28078 0.19,-0.46246 0.25608,-0.52852 0.08245,-0.08257 0.08245,-0.08257 0.13204,-0.08257 z m 34.391,0 c 0.08245,0 0.08245,0 0.12392,0.08257 0.08246,0.08257 0.16514,0.256 0.24772,0.52852 0.1569,0.56155 0.20649,1.465 0.1569,2.4775 -0.11544,2.0233 -0.66894,4.5024 -1.2552,5.9253 -0.36339,0.89189 -0.90182,1.9522 -1.5335,2.7211 -0.62772,0.76802 -1.2817,1.19 -1.9614,1.1454 -0.91996,-0.08257 -1.6301,-0.42117 -2.2875,-1.0405 -0.54503,-0.52027 -1.029,-1.2635 -1.4765,-2.1083 1.8383,-1.5022 3.3957,-3.9524 4.7971,-6.0492 0.71854,-1.0785 1.3949,-2.0588 1.9828,-2.731 0.58637,-0.66891 1.0885,-0.93235 1.214,-0.93235 z"
     color="#000000"
     color-rendering="auto"
     dominant-baseline="auto"
     fill="#0c0c18"
     image-rendering="auto"
     shape-rendering="auto"
     solid-color="#000000"
     stroke-width="3.5174"
     style="font-variant-ligatures:normal;font-variant-position:normal;font-variant-caps:normal;font-variant-numeric:normal;font-variant-alternates:normal;font-feature-settings:normal;text-indent:0;text-decoration-line:none;text-decoration-style:solid;text-decoration-color:#000000;text-transform:none;text-orientation:mixed;white-space:normal;shape-padding:0;isolation:auto;mix-blend-mode:normal"
     id="path11" />
</svg>
