<svg width="32.673mm" height="23.385mm" version="1.1" viewBox="0 0 32.673 23.385" xmlns="http://www.w3.org/2000/svg">
 <g transform="translate(-415.74 -257.13)">
  <g fill="#3cf691">
   <path d="m432.08 257.13c-0.81516 0-1.7293 0.62155-1.7293 1.7292s1.1545 2.8817 1.7293 2.8817c0.57474 0 1.7293-1.7886 1.7293-2.8817s-0.9141-1.7292-1.7293-1.7292z"/>
   <path d="m448.18 278.21c0.40758-0.70595 0.32636-1.8084-0.63294-2.3622-0.9593-0.55385-3.0729-0.44103-3.3603 0.0567-0.28737 0.49774 0.68433 2.3919 1.631 2.9385 0.94667 0.54656 1.9546 0.073 2.3622-0.63299z"/>
   <path d="m415.97 278.21c-0.40758-0.70595-0.32636-1.8084 0.63294-2.3622 0.9593-0.55385 3.0729-0.44103 3.3603 0.0567 0.28737 0.49774-0.68433 2.3919-1.631 2.9385-0.94667 0.54656-1.9546 0.073-2.3622-0.63299z"/>
  </g>
  <path d="m438.43 279.87-1.1576-10.448c-5e-5 -1.9264 0.05-3.9182 1.289-5.1572 0.5807-0.58075 1.2664-0.81074 1.9252-0.81074 0.7467 7e-3 1.4585 0.32641 1.9428 0.81074 0.91176 0.9118 1.2225 2.6459 0 3.8684-1.0315 1.0315-2.936 1.0156-5.157 1.2888-1.9385 0.16783-3.4765 0.25827-5.196 0.25827s-3.2575-0.0904-5.196-0.25827c-2.221-0.2732-4.1255-0.25727-5.157-1.2888-1.2225-1.2225-0.91176-2.9566 0-3.8684 0.48433-0.48433 1.1961-0.80374 1.9428-0.81074 0.65878 0 1.3445 0.22999 1.9252 0.81074 1.239 1.239 1.289 3.2308 1.289 5.1572l-1.1576 10.448" fill="none" stroke="#fff" stroke-linecap="round" stroke-linejoin="round"/>
 </g>
</svg>
