<?xml version="1.0" encoding="UTF-8" standalone="no"?>
<!-- Created with Inkscape (http://www.inkscape.org/) -->

<svg
   width="31.67692mm"
   height="6.5351195mm"
   viewBox="0 0 31.67692 6.5351195"
   version="1.1"
   id="svg8171"
   xmlns="http://www.w3.org/2000/svg"
   xmlns:svg="http://www.w3.org/2000/svg">
  <defs
     id="defs8168">
    <linearGradient
       id="Green"
       gradientTransform="matrix(0.41449752,0,0,0.41449752,-3229.0403,3402.7038)">
      <stop
         style="stop-color:#3cf691;stop-opacity:1;"
         offset="0"
         id="stop3534" />
    </linearGradient>
  </defs>
  <g
     id="layer1"
     transform="translate(10.001425,-83.2573)">
    <path
       d="m 2.9263506,88.644981 v -2.851383 h 0.424552 l -0.034423,0.98106 q 0.1549041,-0.527822 0.4475008,-0.780258 0.2983338,-0.252437 0.6597768,-0.252437 0.3729173,0 0.6024049,0.223751 0.2294876,0.22375 0.2811223,0.676988 0.1606413,-0.453238 0.4589752,-0.676988 0.3040711,-0.223751 0.6540396,-0.223751 0.4360265,0 0.665514,0.304071 0.2352248,0.304071 0.2294876,0.87779 l -0.011474,1.721157 H 6.8850115 l 0.011474,-1.669522 q 0.011474,-0.843367 -0.5794562,-0.843367 -0.1950644,0 -0.3729173,0.120481 -0.1778529,0.120481 -0.3212827,0.407341 -0.1376925,0.281122 -0.2180132,0.768783 -0.080321,0.487661 -0.080321,1.216284 H 4.9114182 v -1.669522 q 0,-0.424552 -0.1376925,-0.631091 -0.1319554,-0.212276 -0.4302893,-0.212276 -0.2008016,0 -0.3786545,0.120481 -0.1778529,0.120481 -0.3212826,0.407341 -0.1376926,0.281122 -0.2237504,0.768783 -0.080321,0.487661 -0.080321,1.216284 z"
       style="font-size:5.73719px;line-height:1.25;font-family:Livvic;-inkscape-font-specification:Livvic;letter-spacing:0px;word-spacing:0px;fill:#ffffff;stroke-width:2.1023"
       id="path8259" />
    <path
       d="m 10.585501,85.793598 v 2.851383 h -0.424552 l 0.01721,-0.671251 q -0.160641,0.332757 -0.4302894,0.527822 -0.2696479,0.189327 -0.6138793,0.189327 -0.3614429,0 -0.6081421,-0.166379 Q 8.279151,88.352385 8.1471957,88.054051 8.0152403,87.74998 8.0152403,87.354114 q 0,-0.476187 0.1721157,-0.83763 0.1721157,-0.36718 0.4819239,-0.567982 0.3098083,-0.206539 0.7171488,-0.206539 0.2868594,0 0.5048727,0.131956 0.2180136,0.131955 0.3212826,0.338494 l 0.05737,-0.418815 z m -1.187598,0.32702 q -0.4302892,0 -0.6884627,0.32702 -0.2581736,0.32702 -0.2581736,0.872053 0,0.464712 0.1950645,0.728623 0.2008016,0.258173 0.545033,0.258173 0.2811223,0 0.5048727,-0.166378 0.2237504,-0.166379 0.3499681,-0.458975 0.126219,-0.292597 0.126219,-0.671252 0,-0.413077 -0.2065392,-0.648302 Q 9.759346,86.120618 9.397903,86.120618 Z"
       style="font-size:5.73719px;line-height:1.25;font-family:Livvic;-inkscape-font-specification:Livvic;letter-spacing:0px;word-spacing:0px;fill:#ffffff;stroke-width:2.1023"
       id="path8261" />
    <path
       d="m 11.446081,89.792419 v -3.998821 h 0.424552 l -0.01721,0.665514 q 0.154904,-0.332757 0.424552,-0.522084 0.269648,-0.195065 0.619616,-0.195065 0.361443,0 0.608142,0.172116 0.252437,0.166379 0.378655,0.47045 0.131955,0.298333 0.131955,0.688462 0,0.476187 -0.172116,0.843367 -0.172115,0.361443 -0.481923,0.567982 -0.309809,0.206539 -0.717149,0.206539 -0.263911,0 -0.47045,-0.114744 -0.206539,-0.114744 -0.315545,-0.304071 l 0.0057,0.372917 v 1.147438 z m 1.187598,-1.485932 q 0.43029,0 0.688463,-0.32702 0.258174,-0.332757 0.258174,-0.87779 0,-0.458975 -0.200802,-0.717148 -0.195064,-0.263911 -0.539296,-0.263911 -0.281122,0 -0.504872,0.166378 -0.218014,0.166379 -0.349969,0.458976 -0.126218,0.292596 -0.126218,0.665514 0,0.418814 0.206539,0.659776 0.212276,0.235225 0.567981,0.235225 z"
       style="font-size:5.73719px;line-height:1.25;font-family:Livvic;-inkscape-font-specification:Livvic;letter-spacing:0px;word-spacing:0px;fill:#ffffff;stroke-width:2.1023"
       id="path8263" />
    <path
       d="m 15.163781,85.793598 v 2.851383 h -0.413077 v -2.851383 z m -0.195064,-0.648302 q -0.137693,0 -0.212276,-0.08606 -0.07458,-0.08606 -0.07458,-0.200802 0,-0.114744 0.07458,-0.200802 0.08032,-0.08606 0.212276,-0.08606 0.131955,0 0.206539,0.08606 0.08032,0.08606 0.08032,0.200802 0,0.114744 -0.08032,0.200802 -0.07458,0.08606 -0.206539,0.08606 z"
       style="font-size:5.73719px;line-height:1.25;font-family:Livvic;-inkscape-font-specification:Livvic;letter-spacing:0px;word-spacing:0px;fill:#ffffff;stroke-width:2.1023"
       id="path8265" />
    <path
       d="m 16.024361,88.644981 v -4.24552 h 0.418814 v 2.610421 l 1.233496,-1.210547 h 0.527822 l -1.3884,1.359714 q 0.120481,0.08032 0.235225,0.240962 l 0.430289,0.619617 q 0.120481,0.172115 0.235225,0.235224 0.120481,0.06311 0.281122,0.06311 0.14343,0 0.269648,-0.07458 l 0.103269,0.315546 q -0.09753,0.06311 -0.212276,0.09179 -0.109006,0.02869 -0.229487,0.02869 -0.476187,0 -0.768784,-0.424553 l -0.436026,-0.613879 q -0.154904,-0.22375 -0.281123,-0.309808 v 1.313816 z"
       style="font-size:5.73719px;line-height:1.25;font-family:Livvic;-inkscape-font-specification:Livvic;letter-spacing:0px;word-spacing:0px;fill:#ffffff;stroke-width:2.1023"
       id="path8267" />
    <path
       d="m 19.082285,85.793598 v 2.851383 h -0.413077 v -2.851383 z m -0.195064,-0.648302 q -0.137693,0 -0.212276,-0.08606 -0.07458,-0.08606 -0.07458,-0.200802 0,-0.114744 0.07458,-0.200802 0.08032,-0.08606 0.212276,-0.08606 0.131955,0 0.206539,0.08606 0.08032,0.08606 0.08032,0.200802 0,0.114744 -0.08032,0.200802 -0.07458,0.08606 -0.206539,0.08606 z"
       style="font-size:5.73719px;line-height:1.25;font-family:Livvic;-inkscape-font-specification:Livvic;letter-spacing:0px;word-spacing:0px;fill:#ffffff;stroke-width:2.1023"
       id="path8269" />
    <path
       d="m 21.027193,88.690879 q -0.487661,0 -0.73436,-0.258174 -0.246699,-0.26391 -0.240962,-0.699937 l 0.01721,-1.583464 H 19.56421 v -0.355706 h 0.51061 l 0.0057,-0.596668 h 0.418815 l -0.0057,0.596668 h 0.992533 v 0.355706 h -0.998271 l -0.01721,1.554778 q 0,0.275385 0.137692,0.441764 0.14343,0.166378 0.441764,0.166378 0.131955,0 0.246699,-0.02869 0.114744,-0.03442 0.240962,-0.131955 l 0.137693,0.332757 q -0.126218,0.109007 -0.298334,0.160641 -0.172116,0.0459 -0.349969,0.0459 z"
       style="font-size:5.73719px;line-height:1.25;font-family:Livvic;-inkscape-font-specification:Livvic;letter-spacing:0px;word-spacing:0px;fill:#ffffff;stroke-width:2.1023"
       id="path8271" />
    <path
       id="path837016"
       d="m -5.9442421,83.2573 c -0.2785211,0 -0.5791565,0.221342 -0.5791565,0.579056 0,0.189367 0.083676,0.379331 0.1841865,0.540905 0.049807,0.08069 0.1047941,0.152709 0.1641641,0.210385 0.059768,0.05877 0.1190388,0.115254 0.2308059,0.115254 0.1123647,0 0.1716351,-0.05778 0.2311047,-0.115951 0.059768,-0.05778 0.1139586,-0.130395 0.1639648,-0.211381 0.099913,-0.161873 0.1838877,-0.350941 0.1838877,-0.539212 0,-0.355124 -0.2988423,-0.579056 -0.5789572,-0.579056 z m 0,0.295156 c 0.1265099,0 0.2839002,0.09364 0.2839002,0.2839 0,0.08467 -0.058772,0.254813 -0.1399578,0.384212 -0.039846,0.06475 -0.084672,0.121131 -0.1192381,0.155299 -0.00996,0.01096 -0.016934,0.01195 -0.023907,0.01793 -0.00996,-0.01 -0.014942,-0.01 -0.023907,-0.01793 -0.034865,-0.03387 -0.079691,-0.08965 -0.1189393,-0.154303 -0.079691,-0.1289 -0.1398582,-0.298543 -0.1398582,-0.385407 0,-0.195243 0.1553981,-0.2838 0.2839003,-0.2838 z m -3.4781264,0.716923 c -0.2784214,0 -0.5790565,0.221542 -0.5790565,0.579256 0,0.189466 0.083676,0.379231 0.183987,0.540706 0.050803,0.08069 0.1048936,0.153007 0.1643633,0.210584 0.059768,0.05778 0.1189392,0.115253 0.2307062,0.115253 0.1122651,0 0.1716352,-0.05877 0.2311048,-0.11605 0.058772,-0.05877 0.1140581,-0.130295 0.1639648,-0.211182 0.099913,-0.161973 0.1840869,-0.35104 0.1840869,-0.539311 0,-0.355124 -0.298942,-0.579256 -0.5791565,-0.579256 z m 6.9300542,0 c -0.2783218,0 -0.5790568,0.221542 -0.5790568,0.579256 0,0.189466 0.084672,0.379231 0.1840868,0.540706 0.049807,0.08069 0.1047941,0.153007 0.1641641,0.210584 0.059768,0.05778 0.1190389,0.115253 0.2308059,0.115253 0.1123647,0 0.1717347,-0.05877 0.2311047,-0.11605 0.058772,-0.05877 0.113859,-0.130295 0.1638652,-0.211182 0.1000126,-0.161973 0.1840869,-0.35104 0.1840869,-0.539311 0,-0.355124 -0.2988423,-0.579256 -0.5790568,-0.579256 z m -6.9300542,0.295256 c 0.1266096,0 0.2839003,0.09364 0.2839003,0.284 0,0.08467 -0.059769,0.254713 -0.1399579,0.384212 -0.039846,0.06475 -0.084672,0.121031 -0.1191384,0.155099 -0.010958,0.01096 -0.016934,0.01195 -0.023907,0.01693 -0.00996,-0.01 -0.014942,-0.01 -0.023907,-0.01693 -0.034865,-0.03387 -0.079691,-0.08965 -0.1189393,-0.154103 -0.079691,-0.128901 -0.1397586,-0.298544 -0.1397586,-0.385407 0,-0.195244 0.1552984,-0.284 0.2838006,-0.284 z m 6.9300542,0 c 0.1266095,0 0.2839002,0.09364 0.2839002,0.284 0,0.08467 -0.059768,0.254713 -0.1399578,0.384212 -0.039846,0.06475 -0.084672,0.121031 -0.1191385,0.155099 -0.00996,0.01096 -0.016934,0.01195 -0.024903,0.01693 -0.00996,-0.01 -0.013946,-0.01 -0.023907,-0.01693 -0.034865,-0.03387 -0.079691,-0.08965 -0.1190389,-0.154103 -0.079691,-0.128901 -0.1398582,-0.298544 -0.1398582,-0.385407 0,-0.195244 0.1556969,-0.284 0.2839999,-0.284 z m -3.4518282,1.00431 c -0.2895782,0 -0.5323378,0.124219 -0.717122,0.312788 -0.1848838,0.188769 -0.3210563,0.438003 -0.4389994,0.712341 -0.2094885,0.486913 -0.3686718,1.04545 -0.5649116,1.510349 -0.2865898,-0.261089 -0.5788576,-0.695805 -0.8439308,-1.092568 -0.1455362,-0.218055 -0.2839998,-0.421766 -0.4213677,-0.578658 -0.1373678,-0.156992 -0.2742376,-0.287985 -0.4657956,-0.287985 -0.093637,0 -0.1846845,0.04483 -0.2435565,0.10848 -0.057776,0.06375 -0.092641,0.141054 -0.1170466,0.225228 -0.047815,0.168148 -0.05678,0.372158 -0.044826,0.594098 0.023907,0.443881 0.1314906,0.951016 0.2690577,1.28552 0.080687,0.196838 0.1978336,0.43123 0.3582124,0.623385 0.1603787,0.192056 0.3792309,0.353132 0.6469936,0.334803 0.2548129,-0.01693 0.4710752,-0.127705 0.6421126,-0.290175 0.1307933,-0.12402 0.2335951,-0.282207 0.3271327,-0.45195 0.4616118,0.358013 0.9906624,0.738241 1.6139479,0.738241 0.6229866,0 1.1516387,-0.379829 1.6129517,-0.737743 0.093637,0.170141 0.1965386,0.328428 0.3274316,0.452547 0.1713362,0.162371 0.3880965,0.272644 0.6432083,0.28918 0.2669658,0.01793 0.483228,-0.144938 0.6410168,-0.337293 0.1577887,-0.192256 0.2725442,-0.426149 0.3525343,-0.621194 0.1371687,-0.333807 0.2476407,-0.840942 0.2737396,-1.284524 0.01295,-0.22194 0.00996,-0.425651 -0.039846,-0.593899 -0.023907,-0.08368 -0.05678,-0.161475 -0.1152536,-0.225626 -0.058772,-0.06475 -0.1495207,-0.109078 -0.2430584,-0.109078 -0.1916575,0 -0.3283281,0.130993 -0.465696,0.287985 -0.1373678,0.156892 -0.2759311,0.360603 -0.4215669,0.578658 -0.2651728,0.397062 -0.5576398,0.832077 -0.8445284,1.093165 -0.195941,-0.464899 -0.3553236,-1.023535 -0.5645132,-1.510648 -0.1179431,-0.274436 -0.2537171,-0.523671 -0.4385013,-0.71244 -0.1847842,-0.188768 -0.4274442,-0.312987 -0.7170224,-0.312987 z m 0,0.295156 c 0.2097873,0 0.3627946,0.0777 0.5059401,0.224232 0.1433447,0.146333 0.2677627,0.365085 0.3783344,0.622588 0.2065,0.480538 0.3690702,1.08151 0.5965889,1.593128 -0.4661941,0.361002 -0.9656592,0.713536 -1.480963,0.713536 -0.5156027,0 -1.0153667,-0.352932 -1.4818596,-0.714133 0.2277179,-0.511618 0.3903877,-1.112491 0.5969874,-1.59283 0.1106713,-0.257403 0.2351889,-0.475956 0.3785336,-0.622289 0.1433447,-0.146234 0.296352,-0.224232 0.5064382,-0.224232 z m -3.4521271,0.576268 c 0.024904,0 0.1255138,0.0518 0.2436562,0.187175 0.1181423,0.134877 0.2536175,0.331815 0.3981576,0.548176 0.2809118,0.420671 0.5936005,0.912167 0.9621727,1.213798 -0.089653,0.169245 -0.1864777,0.318865 -0.2962524,0.422962 -0.1318891,0.125314 -0.2745365,0.197236 -0.4590218,0.209887 -0.1380652,0.01 -0.2714485,-0.07471 -0.4002495,-0.229611 -0.1288011,-0.154302 -0.2381774,-0.367277 -0.3118918,-0.546582 -0.1172458,-0.285096 -0.2259248,-0.782668 -0.2472422,-1.188696 -0.010958,-0.203013 0,-0.385307 0.033869,-0.497174 0.016934,-0.05578 0.037853,-0.09164 0.050803,-0.106786 0.01295,-0.01494 0.010957,-0.01295 0.0259,-0.01295 z m 6.9038557,0 c 0.014942,0 0.010957,0 0.023907,0.01295 0.01295,0.01494 0.033869,0.0508 0.049807,0.106288 0.03088,0.111867 0.042834,0.294161 0.03088,0.497373 -0.023907,0.406127 -0.1346783,0.903799 -0.2519241,1.189492 -0.072718,0.178907 -0.1810984,0.391783 -0.3079072,0.546185 -0.1267092,0.154402 -0.2573033,0.238775 -0.393675,0.229909 -0.1847842,-0.01195 -0.3272323,-0.08368 -0.4593207,-0.208791 -0.1097747,-0.104097 -0.2065,-0.253618 -0.2964515,-0.423261 0.3690702,-0.301531 0.6818585,-0.793426 0.9630692,-1.214296 0.1446397,-0.216561 0.2800153,-0.413299 0.398058,-0.548276 0.1181423,-0.134977 0.2184537,-0.187274 0.2437557,-0.187274 z"
       style="color:#000000;font-style:normal;font-variant:normal;font-weight:normal;font-stretch:normal;font-size:medium;line-height:normal;font-family:sans-serif;font-variant-ligatures:normal;font-variant-position:normal;font-variant-caps:normal;font-variant-numeric:normal;font-variant-alternates:normal;font-feature-settings:normal;text-indent:0;text-align:start;text-decoration:none;text-decoration-line:none;text-decoration-style:solid;text-decoration-color:#000000;letter-spacing:normal;word-spacing:normal;text-transform:none;writing-mode:lr-tb;direction:ltr;text-orientation:mixed;dominant-baseline:auto;baseline-shift:baseline;text-anchor:start;white-space:normal;shape-padding:0;clip-rule:nonzero;display:inline;overflow:visible;visibility:visible;isolation:auto;mix-blend-mode:normal;color-interpolation:sRGB;color-interpolation-filters:linearRGB;solid-color:#000000;solid-opacity:1;vector-effect:none;fill:url(#Green);fill-opacity:1;fill-rule:nonzero;stroke:none;stroke-width:0.513101;stroke-linecap:butt;stroke-linejoin:miter;stroke-miterlimit:4;stroke-dasharray:none;stroke-dashoffset:0;stroke-opacity:1;color-rendering:auto;image-rendering:auto;shape-rendering:auto;text-rendering:auto;enable-background:accumulate" />
  </g>
</svg>
