<?xml version="1.0" encoding="UTF-8" standalone="no"?>
<!-- Created with Inkscape (http://www.inkscape.org/) -->

<svg
   width="31.221317"
   height="23.395645"
   viewBox="0 0 8.2606402 6.1900978"
   version="1.1"
   id="svg19963"
   inkscape:version="1.2 (dc2aedaf03, 2022-05-15)"
   sodipodi:docname="logo-sm.svg"
   xmlns:inkscape="http://www.inkscape.org/namespaces/inkscape"
   xmlns:sodipodi="http://sodipodi.sourceforge.net/DTD/sodipodi-0.dtd"
   xmlns="http://www.w3.org/2000/svg"
   xmlns:svg="http://www.w3.org/2000/svg">
  <sodipodi:namedview
     id="namedview19965"
     pagecolor="#505050"
     bordercolor="#ffffff"
     borderopacity="1"
     inkscape:showpageshadow="0"
     inkscape:pageopacity="0"
     inkscape:pagecheckerboard="1"
     inkscape:deskcolor="#505050"
     inkscape:document-units="mm"
     showgrid="false"
     inkscape:zoom="18.121774"
     inkscape:cx="22.873037"
     inkscape:cy="15.837302"
     inkscape:window-width="1920"
     inkscape:window-height="1020"
     inkscape:window-x="0"
     inkscape:window-y="1104"
     inkscape:window-maximized="1"
     inkscape:current-layer="layer1" />
  <defs
     id="defs19960">
    <linearGradient
       id="bright-green"
       inkscape:swatch="solid"
       gradientTransform="matrix(0,-0.0042665,1.0906436,0,74290.407,1832.8863)">
      <stop
         style="stop-color:#3cff88;stop-opacity:1;"
         offset="0"
         id="stop2162" />
    </linearGradient>
  </defs>
  <g
     inkscape:label="Layer 1"
     inkscape:groupmode="layer"
     id="layer1"
     transform="translate(-105.22118,-97.666912)">
    <path
       inkscape:connector-curvature="0"
       id="path57858"
       d="m 109.36484,97.666912 c -0.28438,0 -0.59151,0.226059 -0.59151,0.591406 0,0.193396 0.0854,0.387417 0.18808,0.552431 0.0509,0.08242 0.10705,0.155966 0.16773,0.214875 0.0614,0.06005 0.12155,0.117707 0.2357,0.117707 0.11473,0 0.17532,-0.05904 0.23609,-0.118422 0.0614,-0.05904 0.11627,-0.133179 0.16734,-0.215886 0.10216,-0.165331 0.1878,-0.358422 0.1878,-0.550705 0,-0.362701 -0.30512,-0.591406 -0.59123,-0.591406 z m 0,0.301453 c 0.12923,0 0.28995,0.0956 0.28995,0.289953 0,0.0865 -0.0605,0.260242 -0.14296,0.392401 -0.0413,0.06618 -0.0864,0.123711 -0.12174,0.158611 -0.0106,0.01123 -0.0173,0.01225 -0.024,0.01828 -0.0106,-0.01022 -0.0154,-0.01022 -0.025,-0.01828 -0.0355,-0.03462 -0.0816,-0.09161 -0.12155,-0.157601 -0.0816,-0.131648 -0.14277,-0.304904 -0.14277,-0.393616 0,-0.199412 0.15871,-0.28985 0.28995,-0.28985 z m -3.55225,0.732204 c -0.28438,0 -0.59141,0.226263 -0.59141,0.591599 0,0.193509 0.0854,0.387325 0.18789,0.552237 0.0518,0.08242 0.10714,0.156275 0.16782,0.215075 0.0614,0.059 0.12155,0.11771 0.2357,0.11771 0.11464,0 0.17532,-0.06 0.23609,-0.11852 0.0605,-0.06006 0.11636,-0.13308 0.16734,-0.215684 0.10216,-0.165433 0.18809,-0.358523 0.18809,-0.550818 0,-0.36269 -0.30531,-0.591599 -0.59152,-0.591599 z m 7.07781,0 c -0.28428,0 -0.59151,0.226263 -0.59151,0.591599 0,0.193509 0.0864,0.387325 0.18808,0.552237 0.0509,0.08242 0.10695,0.156275 0.16763,0.215075 0.0614,0.059 0.12155,0.11771 0.2358,0.11771 0.11473,0 0.17531,-0.06 0.23599,-0.11852 0.0605,-0.06006 0.11637,-0.13308 0.16735,-0.215684 0.10215,-0.165433 0.18808,-0.358523 0.18808,-0.550818 0,-0.36269 -0.30531,-0.591599 -0.59142,-0.591599 z m -7.07781,0.301545 c 0.12933,0 0.28995,0.0956 0.28995,0.290054 0,0.08651 -0.0615,0.26015 -0.14296,0.392412 -0.0413,0.06618 -0.0864,0.12361 -0.12164,0.158406 -0.0115,0.01123 -0.0173,0.01225 -0.024,0.01726 -0.0106,-0.01022 -0.0154,-0.01022 -0.025,-0.01726 -0.0355,-0.03462 -0.0816,-0.09161 -0.12135,-0.157395 -0.0816,-0.131648 -0.14286,-0.304905 -0.14286,-0.393617 0,-0.199413 0.1586,-0.290054 0.28985,-0.290054 z m 7.07781,0 c 0.12923,0 0.28995,0.0956 0.28995,0.290054 0,0.08651 -0.0615,0.26015 -0.14305,0.392412 -0.0413,0.06618 -0.0864,0.12361 -0.12165,0.158406 -0.0106,0.01123 -0.0173,0.01225 -0.0259,0.01726 -0.0106,-0.01022 -0.0144,-0.01022 -0.024,-0.01726 -0.0355,-0.03462 -0.0816,-0.09161 -0.12155,-0.157395 -0.0816,-0.131648 -0.14286,-0.304905 -0.14286,-0.393617 0,-0.199413 0.15899,-0.290054 0.29004,-0.290054 z m -3.52546,1.025726 c -0.29571,0 -0.5437,0.12686 -0.73236,0.31945 -0.18885,0.1928 -0.32797,0.44735 -0.44836,0.72753 -0.21401,0.4973 -0.37655,1.06774 -0.57702,1.54255 -0.29264,-0.26666 -0.59113,-0.71064 -0.86188,-1.11586 -0.14862,-0.2227 -0.29014,-0.43076 -0.43041,-0.59099 -0.14027,-0.16035 -0.28006,-0.29413 -0.47563,-0.29413 -0.096,0 -0.18866,0.0458 -0.24876,0.11079 -0.0595,0.0651 -0.0951,0.14407 -0.11962,0.23004 -0.049,0.17173 -0.0586,0.38009 -0.0461,0.60676 0.024,0.45334 0.13432,0.97129 0.27488,1.31293 0.0826,0.20103 0.202,0.44042 0.36579,0.63667 0.16379,0.19615 0.3873,0.36067 0.66083,0.34194 0.26019,-0.0173 0.48111,-0.13043 0.65575,-0.29636 0.13364,-0.12667 0.23858,-0.28823 0.33411,-0.46159 0.47141,0.36565 1.01184,0.75398 1.64838,0.75398 0.63626,0 1.17612,-0.38793 1.64733,-0.75347 0.096,0.17377 0.20076,0.33544 0.3345,0.4622 0.17493,0.16583 0.39633,0.27845 0.65689,0.29535 0.27258,0.0183 0.49349,-0.14803 0.6546,-0.34449 0.1612,-0.19635 0.27833,-0.43524 0.36003,-0.63444 0.14017,-0.34092 0.25299,-0.85887 0.27968,-1.31191 0.0134,-0.22667 0.0106,-0.43473 -0.0413,-0.60655 -0.024,-0.0855 -0.0586,-0.16493 -0.11761,-0.23044 -0.0605,-0.0662 -0.15285,-0.11141 -0.24828,-0.11141 -0.19576,0 -0.33536,0.13378 -0.47563,0.29413 -0.14037,0.16023 -0.28179,0.36829 -0.4306,0.59099 -0.27075,0.40553 -0.56953,0.84982 -0.86255,1.11647 -0.19999,-0.47481 -0.36282,-1.04535 -0.57654,-1.54285 -0.12039,-0.28028 -0.25903,-0.53484 -0.44778,-0.72763 -0.18876,-0.1928 -0.43656,-0.31966 -0.73227,-0.31966 z m 0,0.30145 c 0.21429,0 0.37059,0.0794 0.51672,0.22901 0.14641,0.14946 0.27353,0.37287 0.38644,0.63586 0.21093,0.49079 0.37693,1.10457 0.60927,1.6271 -0.4762,0.36869 -0.9862,0.72874 -1.51253,0.72874 -0.52661,0 -1.03699,-0.36046 -1.51349,-0.72936 0.23254,-0.52252 0.39873,-1.13621 0.60976,-1.62679 0.1131,-0.26288 0.24021,-0.48609 0.38653,-0.63555 0.14651,-0.14935 0.30272,-0.22901 0.5173,-0.22901 z m -3.52566,0.58855 c 0.0259,0 0.12818,0.0529 0.24876,0.19116 0.12069,0.13776 0.25904,0.3389 0.4067,0.55987 0.28687,0.42964 0.6063,0.93162 0.98265,1.23968 -0.0922,0.17285 -0.19038,0.32566 -0.30252,0.43197 -0.1347,0.12799 -0.28044,0.20145 -0.46881,0.21437 -0.14104,0.0102 -0.27728,-0.0763 -0.40881,-0.23451 -0.13154,-0.1576 -0.24329,-0.37511 -0.31856,-0.55824 -0.11972,-0.29117 -0.23071,-0.79934 -0.25251,-1.21403 -0.0115,-0.20735 0,-0.39353 0.0346,-0.50778 0.0173,-0.057 0.0384,-0.0935 0.0518,-0.10906 0.0134,-0.0152 0.0115,-0.0133 0.0269,-0.0133 z m 7.05093,0 c 0.0154,0 0.0115,0 0.025,0.0132 0.0134,0.0152 0.0346,0.0519 0.0509,0.10855 0.0317,0.11425 0.0442,0.30043 0.0317,0.50797 -0.024,0.41479 -0.13749,0.92307 -0.25721,1.21485 -0.0749,0.18273 -0.18501,0.40014 -0.31453,0.55784 -0.12932,0.15769 -0.26277,0.24386 -0.40208,0.23481 -0.18866,-0.0123 -0.33412,-0.0855 -0.46911,-0.21325 -0.11213,-0.10631 -0.21083,-0.25902 -0.30281,-0.43229 0.37703,-0.30795 0.69645,-0.81033 0.98371,-1.24017 0.14767,-0.22118 0.28592,-0.42211 0.40641,-0.55997 0.12078,-0.13786 0.22322,-0.19126 0.24905,-0.19126 z"
       style="color:#000000;font-style:normal;font-variant:normal;font-weight:normal;font-stretch:normal;font-size:medium;line-height:normal;font-family:sans-serif;font-variant-ligatures:normal;font-variant-position:normal;font-variant-caps:normal;font-variant-numeric:normal;font-variant-alternates:normal;font-feature-settings:normal;text-indent:0;text-align:start;text-decoration:none;text-decoration-line:none;text-decoration-style:solid;text-decoration-color:#000000;letter-spacing:normal;word-spacing:normal;text-transform:none;writing-mode:lr-tb;direction:ltr;text-orientation:mixed;dominant-baseline:auto;baseline-shift:baseline;text-anchor:start;white-space:normal;shape-padding:0;clip-rule:nonzero;display:inline;overflow:visible;visibility:visible;isolation:auto;mix-blend-mode:normal;color-interpolation:sRGB;color-interpolation-filters:linearRGB;solid-color:#000000;solid-opacity:1;vector-effect:none;fill:url(#bright-green);fill-opacity:1;fill-rule:nonzero;stroke:none;stroke-width:0.52404;stroke-linecap:butt;stroke-linejoin:miter;stroke-miterlimit:4;stroke-dasharray:none;stroke-dashoffset:0;stroke-opacity:1;color-rendering:auto;image-rendering:auto;shape-rendering:auto;text-rendering:auto;enable-background:accumulate" />
  </g>
</svg>
