<svg width=".52686in" height=".39481in" version="1.1" viewBox="0 0 13.382 10.028" xmlns="http://www.w3.org/2000/svg" xmlns:osb="http://www.openswatchbook.org/uri/2009/osb">
 <g transform="translate(-75.343 -135.88)">
  <path d="m82.055 136.13c-0.33658 0-0.71398 0.25661-0.71398 0.71394s0.47669 1.1897 0.71398 1.1897c0.23726 0 0.7139-0.73846 0.7139-1.1897 0-0.45127-0.37737-0.71394-0.7139-0.71394zm-5.7548 1.6747c-0.33652 0-0.71394 0.25661-0.71394 0.71394s0.47669 1.1897 0.71394 1.1897c0.2373 0 0.71398-0.73847 0.71398-1.1897 0-0.45127-0.3774-0.71394-0.71398-0.71394zm11.466 0c-0.33658 0-0.71395 0.25661-0.71395 0.71394s0.47664 1.1897 0.71395 1.1897c0.23726 0 0.71395-0.73847 0.71395-1.1897 0-0.45127-0.37741-0.71394-0.71395-0.71394zm-5.7113 2.1502c-1.6531 0-1.934 2.6738-2.7456 4.3642 0.81238 0.63455 1.727 1.3419 2.7454 1.3419 1.0178-1e-5 1.932-0.7066 2.744-1.3409-0.8106-1.6902-1.0916-4.3651-2.7439-4.3652zm2.7439 4.3652c0.3578 0.74611 0.81869 1.3006 1.5465 1.3479 0.66736 0.0434 1.1482-0.81623 1.4023-1.4348 0.42112-1.0252 0.73246-3.325 0.01848-3.325-0.71744 0-1.7037 2.4264-2.8558 3.325-0.03663 0.0286-0.07465 0.058-0.11162 0.087zm-5.4894-1e-3c-0.03653-0.0286-0.07412-0.0577-0.11028-0.0859-1.152-0.89854-2.1382-3.325-2.8557-3.325-0.71738 0-0.42164 2.3 0 3.325 0.25601 0.6225 0.74927 1.4807 1.4208 1.4348 0.72688-0.0496 1.1875-0.60391 1.5452-1.3489z" fill="none" stroke="#46ee92" stroke-width=".48833"/>
 </g>
</svg>
