<svg width="61.737mm" height="40.036mm" version="1.1" viewBox="0 0 61.737 40.036" xmlns="http://www.w3.org/2000/svg" xmlns:osb="http://www.openswatchbook.org/uri/2009/osb">
 <g transform="translate(-43.971 -69.941)" fill="none" stroke-width="1.065">
  <g stroke="#37375b" stroke-linecap="round">
   <path d="m61.365 108.11v-37.637"/>
   <path d="m62.698 71.806-1.3335-1.3334-1.3335 1.3334" stroke-linejoin="round"/>
   <path d="m61.365 108.11h42.375"/>
   <path d="m102.41 109.44 1.3334-1.3335-1.3334-1.3335" stroke-linejoin="round"/>
  </g>
  <g>
   <path d="m46.318 85.142c0.08066 2.5237 1.4182 5.7993 3.7319 6.1905 2.3137 0.39123 5.6036-2.1014 5.5231-4.6249-0.08047-2.5234-3.5315-5.0777-5.8454-5.4692-2.3139-0.39151-3.4902 1.3799-3.4096 3.9036z" stroke="#3cf691"/>
   <path d="m44.503 99.82c6.5871-2.9895 13.174-5.979 17.97-5.8829 4.7963 0.09615 7.8019 3.2775 10.4 5.4617 2.5984 2.1842 4.7895 3.3714 7.1242 2.1377 2.3348-1.2337 4.8135-4.888 7.4734-6.7294 2.6599-1.8414 5.5005-1.8697 8.3012-1.1472 2.8007 0.72248 5.5421 2.1854 8.2928 3.6533" stroke="#37375b" stroke-linecap="round"/>
   <path d="m67.239 87.287c-0.87758-0.19164-1.5705-1.2394-1.319-2.0474 0.25147-0.808 1.4474-1.3759 2.3251-1.1839 0.8777 0.19201 1.437 1.1435 1.1854 1.9512-0.25157 0.80765-1.314 1.4718-2.1916 1.2801z" stroke="#f73b5b"/>
   <path d="m65.186 100.53c3.3144-4.3813 6.6289-8.7627 9.4615-10.49s5.183-0.80049 8.0265 1.8233 6.18 6.9443 10.012 9.2655c3.8325 2.3212 8.1608 2.6434 12.489 2.9655" stroke="#3cf691" stroke-linecap="round"/>
   <path d="m70.788 78.19c0.53154-0.73916 1.2094-1.3596 1.6858-1.1056 0.47634 0.25395 0.7511 1.3819 0.2301 2.1181-0.521 0.7362-1.8797 1.0919-2.3561 0.83823-0.47645-0.2537-0.09129-1.1115 0.44025-1.8507z" stroke="#ffaf35"/>
   <path d="m94.329 82.975c1.4955-0.88838 3.7821-0.42704 4.936 0.59566 1.154 1.0227 1.13 2.5974-0.33643 3.4685-1.4664 0.87108-3.9596 1.0149-5.2789-0.15385-1.3193-1.1687-0.8162-3.0219 0.67928-3.9103z" stroke="#ffaf35"/>
  </g>
 </g>
</svg>
