<svg width="58.276mm" height="33.631mm" version="1.1" viewBox="0 0 58.276 33.631" xmlns="http://www.w3.org/2000/svg" xmlns:osb="http://www.openswatchbook.org/uri/2009/osb">
 <g transform="translate(-16.975 95.435)">
  <g fill="none" stroke-width="1.065">
   <path d="m50.364-88.685c0.05969-1.0165 1.1181-2.1819 2.1137-2.1558 0.99556 0.02609 1.9282 1.2432 1.8987 2.2874-0.02952 1.0442-0.90122 1.8102-2.0172 1.7813-1.116-0.02891-2.0549-0.89638-1.9952-1.9129z" stroke="#3cf691"/>
   <g stroke-linecap="round">
    <rect x="35.401" y="-94.902" width="22.981" height="30.41" stroke="#37375b" stroke-linejoin="round"/>
    <g>
     <path d="m28.634-66.403c1.8335-3.4609 3.6672-6.9221 6.0433-8.6854 2.3761-1.7633 5.294-1.8287 7.6023-0.46136 2.3083 1.3673 4.0069 4.1665 5.809 5.7663 1.8021 1.5998 3.7077 2.0007 5.9951 1.1608 2.2874-0.83995 4.9572-2.9205 6.937-4.0378 1.9798-1.1173 3.2691-1.2714 4.5581-1.4255" stroke="#3cf691"/>
     <path d="m17.507-84.606c2.0263-0.66744 4.0525-1.3349 5.8304-1.2228 1.7779 0.11209 3.3069 1.0034 4.6608 1.3311 1.3539 0.32771 2.5326 0.09202 3.7111-0.14364" stroke="#37375b"/>
     <path d="m61.367-84.945c1.3195-0.9893 2.639-1.9786 4.0591-1.8619 1.4201 0.11671 2.9405 1.3391 4.3438 1.5343 1.4033 0.19521 2.6892-0.63647 3.9753-1.4683" stroke="#37375b"/>
    </g>
   </g>
   <g>
    <path d="m24.03-73.2c0.53154-0.73916 1.2094-1.3596 1.6858-1.1056 0.47634 0.25395 0.7511 1.3819 0.2301 2.1181-0.521 0.7362-1.8797 1.0919-2.3561 0.83823s-0.09129-1.1115 0.44025-1.8507z" stroke="#ffaf35"/>
    <path d="m61.594-63.941c-0.27903-0.75301-0.35767-1.2906 0.23838-1.4171s1.8668 0.15854 2.1456 0.91167c0.27878 0.75313-0.43402 1.9744-1.0299 2.1007-0.59584 0.1263-1.0751-0.84226-1.3542-1.5953z" stroke="#41cff6"/>
    <path d="m71.866-69.244c-0.33946 0.0098-1.0182 0.0295-1.3437-0.58167-0.32551-0.61116-0.29751-1.8532 0.15992-2.7136 0.45743-0.86041 1.3442-1.339 2.2658-1.1258 0.92158 0.21318 1.8778 1.1179 1.7598 1.9684-0.11797 0.85042-1.31 1.6466-1.906 2.0448-0.59604 0.39813-0.59634 0.39813-0.9358 0.40797z" stroke="#f73b5b"/>
   </g>
  </g>
 </g>
</svg>
